<svg xmlns="http://www.w3.org/2000/svg" viewBox="0 0 79.375 79.375"><path fill="#1a1a1a" d="M51.148 73.803c-.018-.02-.068-.068-.087-.086-.033-.03-.086-.078-.217-.193-.18-.157-.217-.19-.256-.226-.033-.03-.115-.113-.143-.144-.047-.05-.056-.058-.103-.095-.01-.01-.028-.023-.036-.03-.01-.006-.023-.017-.032-.024-.01-.006-.018-.014-.02-.016l-.005-.004c-.002 0-.008-.005-.007-.006h-.002c-.002 0-.012-.008-.01-.01 0 0-.008-.006-.012-.007-.003 0-.006-.003-.01-.006l-.01-.008-.012-.01-.005-.004h-.003c0-.003-.002-.004-.002-.003l-.01-.006-.008-.008c0-.004-.005-.006-.008-.007l-.01-.005-.08-.056c-.08-.053-.166-.103-.255-.148-.023-.01-.027-.013-.037-.015-.006-.002-.02-.006-.033-.008-.062-.014-.126-.032-.178-.05l-.048-.02-.006-.003c0-.002 0-.002-.002-.002 0 0-.003-.003-.007-.003s-.017-.006-.038-.015c-.047-.02-.087-.034-.174-.063-.084-.027-.117-.038-.13-.04-.005 0-.01-.003-.013-.004-.013-.007-.022-.01-.047-.02l-.06-.026c-.017-.008-.023-.013-.027-.02l-.003-.006-.015-.04c-.016-.046-.024-.077-.044-.168-.004-.023-.01-.043-.01-.043 0-.002 0-.002 0 0-.004 0-.004-.002-.005-.02 0-.007-.003-.018-.005-.027-.005-.03-.014-.092-.02-.15-.004-.045-.007-.062-.008-.07-.003-.012-.005-.03-.005-.047 0-.024-.002-.032-.007-.047l-.005-.016c0-.002.07-.002.985-.002h.985l.045.037c.154.126.264.213.395.31.074.057.098.074.198.14.104.07.13.087.16.103.037.02.056.026.13.042.055.012.07.016.093.026l.008.004v1.368h-.72l-.01-.01z"/><path fill="#1a1a1a" d="M50.582 73.293c-.036-.034-.113-.11-.147-.148-.032-.033-.045-.046-.064-.062-.01-.01-.075-.06-.1-.078-.024-.018-.03-.022-.03-.025h-.003s-.008-.006-.01-.01c-.002 0-.006-.004-.01-.006-.004 0-.01-.005-.012-.007l-.01-.01c-.004 0-.008-.004-.01-.006-.002 0-.01-.005-.014-.01l-.014-.012-.007-.004-.014-.008c-.104-.075-.215-.143-.323-.197-.038-.02-.03-.018-.08-.03-.062-.012-.123-.03-.175-.05-.022-.007-.038-.013-.048-.018-.004 0-.01-.004-.016-.006l-.033-.014c-.052-.022-.08-.032-.14-.053-.084-.03-.147-.048-.165-.052-.01-.002-.02-.006-.02-.008h-.003c-.002.002-.05-.01-.06-.014h-.004l-.03-.017-.018-.018s0-.002-.002-.003c-.006-.004-.015-.016-.017-.024v-.002h-.002v-.002s-.002 0-.002-.002 0-.003-.002-.003c0 0-.008-.015-.007-.016-.002 0-.002 0 0 0 0 0 0-.002-.002-.002 0 0 0-.002-.002-.003v-.003c-.002 0-.002 0-.002-.002.002 0 .002 0 0 0v-.003-.002-.002h-.002v-.002-.002c-.002 0-.002 0-.002-.002v-.003c-.002 0-.002-.002-.002-.002v-.003h-.002v-.003-.003h-.002v-.002-.002s-.002 0 0 0c0 0 0-.003-.002-.003v-.002c-.002 0-.002-.002 0-.002l-.002-.002v-.002-.002c-.002 0-.002 0 0 0 0 0 0-.002-.002-.003v-.003-.002-.002c-.002 0-.002-.002-.002-.003v-.003-.002l-.002-.002v-.004c-.002 0-.002-.002 0-.003l-.002-.002v-.002-.002s-.002 0 0 0c0-.002 0-.002-.002-.003v-.002l-.002-.01v-.005c-.002 0-.002-.004-.002-.005v-.004s-.002 0-.002-.003c0 0 0-.004-.002-.006 0-.004 0-.006-.002-.01 0-.004 0-.007-.002-.01v-.01c-.002-.002-.002-.006-.003-.01v-.01l-.002-.008c0-.006 0-.01-.002-.014 0-.01-.002-.013-.002-.016v-.003c-.003 0-.003-.003-.004-.008l-.005-.04c-.005-.027-.013-.085-.02-.156-.003-.027-.006-.054-.008-.06-.003-.022-.005-.037-.005-.054 0-.02-.003-.03-.008-.046l-.004-.014c0-.003-.025-.046-.027-.046l-.002-.003-.004-.007-.003-.006-.027-.046c-.066-.11-.196-.254-.343-.376-.007-.007-.014-.012-.013-.013h1.92l.022.017c.052.042.078.067.107.106l.035.055.006.01c.002 0 .012.023.015.03l.003.012c.003.015 0 .02-.012.013-.007-.004-.01-.003-.003.002.024.022.29.25.296.25l.04.033c.083.07.115.096.175.143.07.056.133.106.2.155l.03.025v1.18h-.688z"/><path fill="#586ba4" d="M0-.004h79.38v79.38H0z"/><path fill="#1a1a1a" d="M51.675 72.404c-.007-.003-.013-.007-.023-.016-.005-.005-.008-.01-.005-.008l.02.01c.01.004.022.01.025.01l.004.002-.005.002c-.005.003-.008.003-.015 0zM51.634 72.375l-.002-.002.008.004-.006-.002zM51.63 72.37v.001zM52.384 73.255l-.002-.006c0-.004 0-.003.004.004.003.004 0 .005-.002 0zM53.203 75.702c.002 0 0 0 0 0zM45.423 66.877v-.002h.002c.003.004 0 .004-.002.002zM41.397 66.257c0-.004.003-.004.003 0v.003c-.003 0-.003 0-.002-.003z"/><g><path fill="#f5dd90" d="M26.575 79.236c0-.06.135-.376.298-.702.197-.393.297-.83.294-1.29-.005-.855-.16-1.04-1.806-2.163-.653-.444-2.52-1.805-4.147-3.023-1.628-1.218-3.176-2.33-3.442-2.472-.86-.46-1.534-1.182-1.407-1.512.14-.368.544-.254 1.492.422 1.33.948 4.012 2.69 4.422 2.87.196.088.615.354.93.59 1.017.767 3.137 2.134 4.304 2.776l1.137.626.434-.5c.24-.276.435-.57.435-.652 0-.084.305-.48.678-.88 1.402-1.507 6.37-8.07 6.85-9.047l.277-.568-.56-.77c-1.88-2.587-2.24-3.348-1.68-3.563.225-.086.43.107 2.092 1.965.446.5.893.89.994.87.1-.022 1.197-2.03 2.436-4.463l2.253-4.423-.29-.344c-.158-.188-.468-.44-.688-.557-1.062-.568-1.61-1.1-2.083-2.018l-.48-.93h-.725c-.603 0-.792-.062-1.117-.362l-.39-.362.367-.14c.203-.076.545-.14.76-.14.216 0 .393-.062.393-.14 0-.18-.868-1.54-1.058-1.656-.262-.162-.872.334-1.36 1.105-.266.417-.92 1.63-1.454 2.696-.533 1.065-1.103 2.117-1.264 2.338-.16.22-.53.814-.82 1.32-.288.506-.615 1.053-.725 1.216l-.462.684c-.83 1.227-3.53 4.26-5.032 5.656l-1.743 1.617-.89-.03c-.878-.032-.908-.02-1.81.633-1.89 1.37-3.51 2.326-3.964 2.332-.362.005-.8-.4-.8-.74 0-.18-.034-.326-.078-.326-.043 0-.42.305-.835.68-.97.872-1.978 1.454-2.52 1.456-.234 0-.463.06-.508.135-.047.074-.23.134-.41.134-.253 0-.326-.07-.326-.314 0-.173-.036-.67-.08-1.103l-.08-.788.71-.936c.78-1.026 1.085-1.393 1.996-2.4.335-.37.936-1.125 1.337-1.676.4-.55 1.18-1.513 1.734-2.138.555-.625 1.624-1.858 2.376-2.74.752-.882 1.824-2.114 2.382-2.74 1.708-1.913 2.974-3.457 3.206-3.91.122-.238.374-.613.56-.833.693-.825 3.55-7.15 3.23-7.15-.064 0-.69.37-1.395.82-1.984 1.268-2.87 1.242-2.673-.08.08-.54.27-.815 1.607-2.314 1.77-1.987 2.067-2.448 1.825-2.835-.247-.395-.205-.725.23-1.816.22-.545.497-1.477.617-2.072.232-1.144.23-1.17-.35-3.004-.07-.226-.128-.686-.128-1.023 0-.683.738-3.9 1.323-5.768 1-3.185 1.148-4.003.717-3.93-.18.03-.254-.095-.333-.562-.615-3.62-.605-3.484-.37-5.01.282-1.85 1.045-4.302 1.65-5.32C33.876 5.872 35.923 4.13 38.3 3.13c1.757-.74 2.712-.968 4.815-1.15 1.724-.15 3.033-.046 4.44.35.98.277 2.5 1.232 3.244 2.04.664.723 1.535 1.22 2.86 1.628 1.942.6 3.117 1.67 3.117 2.84 0 .564-.184.707-.614.477-.28-.15-.502-.116-1.69.254-.755.234-1.502.425-1.662.424-.42-.003-.71.35-.71.868 0 .248-.058.486-.128.53-.07.043-.098.157-.06.253.036.097-.027.253-.14.347-.513.426.047 1.17 1.435 1.905 1.06.56 2.593 2.014 3.368 3.19.79 1.2 1.52 2.535 1.67 3.05.067.24.067 1.42 0 2.805-.114 2.282-.14 2.45-.597 3.642-.262.686-.56 1.398-.66 1.582-.1.184-.486 1.15-.858 2.144-1.107 2.96-2.49 5.728-3.943 7.885-.27.402-.435.748-.367.77.067.023.474-.057.903-.176.43-.12 1.177-.298 1.663-.398.486-.1 1.117-.306 1.4-.458.286-.153.64-.28.788-.28.392-.003.46-.065 1.694-1.55.617-.746 1.812-2.148 2.655-3.118l1.533-1.763.802.092c.95.107 1.002.13 1.002.47 0 .165-.138.317-.367.404-.574.218-4.48 4.38-5.335 5.683-.178.272-.157.342.282.918.262.343.476.768.476.946 0 .25.158.413.704.72.887.5 1.63 1.25 1.523 1.535-.125.324-.43.253-1.384-.322-.485-.29-1.146-.632-1.47-.756-.543-.207-.61-.207-.806-.01-.184.183-.193.334-.068 1.09.193 1.168.005 1.848-.644 2.328-.376.278-.415.28-.83.075-.238-.12-.674-.48-.968-.8-.294-.323-.606-.603-.693-.624-.207-.05-7.855 7.556-8.294 8.248-.187.294-.51.733-.722.975-.305.35-.355.49-.247.693.075.14.196.29.27.336.072.044.132.228.132.407 0 .18.054.327.12.327.18 0 .814-.79.814-1.013 0-.103.12-.19.268-.19.235 0 .267.09.267.75 0 .678-.045.792-.475 1.22l-.474.475-1.127-.08-1.128-.08-.345.59c-.81 1.384-3.534 7.293-3.534 7.67 0 .48.08.538 3.63 2.664 1.372.82 2.926 1.668 3.454 1.883.527.215 1.074.494 1.214.62.336.306.324.708-.026.837-.264.098-.25.13.234.548.283.245.913.822 1.4 1.284.488.46 1.13.993 1.43 1.182.298.188.638.544.755.79.117.248.482.706.81 1.02.878.836.785 1.4-.26 1.57-.465.075-.48.064-.48-.338 0-.343-.177-.585-1.014-1.388-1.042-1-1.334-1.214-1.947-1.43-.244-.087-.384-.257-.447-.544-.06-.268-.275-.55-.605-.788-.282-.205-.67-.56-.862-.787-.192-.23-.47-.454-.62-.5-.147-.048-.32-.228-.387-.4-.236-.623-3.78-2.775-6.183-3.755l-.906-.37-.744.728c-.74.722-1.125 1.198-3.774 4.662-2.964 3.875-3.662 4.827-3.593 4.896.04.04.28-.112.537-.337.566-.496.9-.53.9-.094 0 .38-.326.724-1.595 1.69l-.968.734.084.534c.046.294.118.67.16.836.118.476-.446.4-.73-.1-.285-.5-.383-.5-.668 0-.224.392-.246.4-1.33.4-.606 0-1.103-.048-1.103-.108zM42.16 48.392c.24-.578.244-.566-.536-1.623l-.618-.84-.534.273c-.293.15-.533.352-.533.45 0 .328 1.048 1.802 1.427 2.008.528.287.566.274.792-.268zm7.4-2.848c3.78-3.597 4.143-3.96 4.143-4.128 0-.083-.153-.252-.34-.375-.32-.21-.41-.205-1.57.08-1.495.366-1.902.565-2.155 1.053-.24.462-1.144 1.216-1.948 1.623-.33.168-.857.477-1.17.687l-1.135.765c-.403.27-.814.41-1.413.476-.997.11-1.227.185-1.227.4 0 .31.29.476.572.326.348-.186.758.034 1.066.57.216.378.274.402.76.32.47-.08.575-.042 1.033.378.28.256.57.43.644.386.074-.044 1.307-1.196 2.74-2.56z"/></g></svg>
